<svg width="133" height="56" viewBox="0 0 133 56" fill="none" xmlns="http://www.w3.org/2000/svg">
<g id="Logo ">
<g id="Red">
<path d="M9.73276 24.6413C10.6678 24.6413 11.4605 24.5261 12.1109 24.2957C12.7749 24.0518 13.317 23.7198 13.737 23.2998C14.1571 22.8797 14.462 22.3919 14.6517 21.8363C14.8414 21.2671 14.9363 20.6573 14.9363 20.0069C14.9363 18.706 14.5094 17.6897 13.6557 16.958C12.8156 16.2262 11.5079 15.8604 9.73276 15.8604H6.9684V24.6413H9.73276ZM24.327 40.3331H18.1072C16.9553 40.3331 16.1287 39.8995 15.6274 39.0322L10.7084 30.4343C10.4781 30.0684 10.2206 29.8041 9.93603 29.6415C9.65146 29.4654 9.24494 29.3773 8.71645 29.3773H6.9684V40.3331H0.0981445V10.7178H9.73276C11.8738 10.7178 13.6964 10.9414 15.2005 11.3886C16.7182 11.8222 17.9513 12.432 18.8999 13.218C19.862 14.0039 20.5599 14.9321 20.9935 16.0026C21.4271 17.0732 21.6439 18.2385 21.6439 19.4988C21.6439 20.4609 21.5152 21.3688 21.2577 22.2225C21.0003 23.0762 20.6208 23.8689 20.1195 24.6006C19.6181 25.3188 18.9947 25.9625 18.2494 26.5316C17.5177 27.1008 16.6708 27.5683 15.7087 27.9341C16.1558 28.1645 16.5759 28.4558 16.9689 28.8082C17.3619 29.1469 17.7142 29.5534 18.0259 30.0277L24.327 40.3331Z" fill="#0336FF"/>
<path d="M37.8052 27.2634C37.8052 26.762 37.7374 26.2742 37.6019 25.7999C37.4799 25.3256 37.2699 24.9055 36.9718 24.5397C36.6872 24.1602 36.3078 23.8553 35.8335 23.625C35.3592 23.3946 34.7833 23.2794 34.1058 23.2794C32.9133 23.2794 31.9783 23.625 31.3008 24.3161C30.6232 24.9936 30.1761 25.976 29.9592 27.2634H37.8052ZM29.8779 30.9221C30.0812 32.6837 30.6165 33.9642 31.4837 34.7637C32.351 35.5497 33.4689 35.9427 34.8375 35.9427C35.5693 35.9427 36.1994 35.8546 36.7279 35.6784C37.2563 35.5023 37.7238 35.3058 38.1304 35.089C38.5504 34.8721 38.9299 34.6757 39.2686 34.4995C39.621 34.3233 39.9868 34.2352 40.3663 34.2352C40.8676 34.2352 41.2471 34.4182 41.5045 34.7841L43.3339 37.0403C42.6834 37.7856 41.9788 38.3953 41.22 38.8696C40.4747 39.3304 39.7023 39.6962 38.9028 39.9672C38.1168 40.2247 37.3241 40.4009 36.5246 40.4957C35.7387 40.6041 34.9866 40.6583 34.2684 40.6583C32.7914 40.6583 31.4024 40.4212 30.1015 39.9469C28.8142 39.4591 27.6827 38.7409 26.707 37.7923C25.7449 36.8438 24.9793 35.6649 24.4102 34.2556C23.8546 32.8463 23.5768 31.2066 23.5768 29.3366C23.5768 27.9274 23.814 26.5926 24.2882 25.3324C24.7761 24.0721 25.4671 22.9678 26.3615 22.0192C27.2694 21.0706 28.3602 20.3186 29.634 19.763C30.9213 19.2074 32.3713 18.9296 33.9838 18.9296C35.3796 18.9296 36.6533 19.1464 37.8052 19.5801C38.9705 20.0137 39.9665 20.6438 40.7931 21.4704C41.6333 22.297 42.2837 23.3133 42.7444 24.5193C43.2187 25.7118 43.4558 27.0669 43.4558 28.5846C43.4558 29.0588 43.4355 29.445 43.3949 29.7432C43.3542 30.0413 43.2797 30.2784 43.1713 30.4546C43.0629 30.6307 42.9138 30.7527 42.7241 30.8204C42.5479 30.8882 42.3176 30.9221 42.033 30.9221H29.8779Z" fill="#0336FF"/>
<path d="M59.3941 24.9055C58.9198 24.377 58.4049 24.0112 57.8493 23.8079C57.2937 23.5911 56.7111 23.4827 56.1013 23.4827C55.5186 23.4827 54.9833 23.5979 54.4955 23.8282C54.0077 24.0586 53.5808 24.4312 53.215 24.9462C52.8626 25.4476 52.5848 26.1048 52.3816 26.9178C52.1783 27.7309 52.0767 28.7133 52.0767 29.8651C52.0767 30.9763 52.158 31.9113 52.3206 32.6701C52.4832 33.429 52.7068 34.0455 52.9914 34.5198C53.2895 34.9805 53.6418 35.3125 54.0483 35.5158C54.4549 35.7191 54.9088 35.8207 55.4102 35.8207C55.8709 35.8207 56.2842 35.78 56.6501 35.6987C57.0295 35.6039 57.375 35.4751 57.6867 35.3125C57.9984 35.1499 58.2897 34.9467 58.5607 34.7028C58.8453 34.4453 59.1231 34.1539 59.3941 33.8287V24.9055ZM65.6952 9.90479V40.3331H61.7926C61.0067 40.3331 60.4917 39.9808 60.2478 39.2761L59.76 37.6704C59.3399 38.1176 58.8995 38.5241 58.4388 38.8899C57.9781 39.2558 57.4767 39.5743 56.9347 39.8453C56.4062 40.1028 55.8303 40.2992 55.2069 40.4347C54.5971 40.5838 53.9331 40.6583 53.215 40.6583C52.1173 40.6583 51.101 40.4144 50.166 39.9266C49.231 39.4388 48.4247 38.7341 47.7472 37.8127C47.0697 36.8912 46.5344 35.7665 46.1414 34.4385C45.762 33.097 45.5723 31.5725 45.5723 29.8651C45.5723 28.2932 45.7891 26.8365 46.2227 25.495C46.6564 24.1399 47.2662 22.9745 48.0521 21.9989C48.8516 21.0097 49.8069 20.2373 50.9181 19.6817C52.0293 19.1261 53.2556 18.8483 54.5971 18.8483C55.6948 18.8483 56.6162 19.0041 57.3615 19.3158C58.1068 19.6275 58.7843 20.0476 59.3941 20.576V9.90479H65.6952Z" fill="#0336FF"/>
</g>
<g id="Explorers">
<path d="M2.55309 44.2088V46.7619H5.99224V48.6391H2.55309V51.2448H7.04351V53.1971H0V42.2564H7.04351V44.2088H2.55309Z" fill="#FFA500"/>
<path d="M15.7877 53.1971H13.55C13.3848 53.1971 13.2496 53.1571 13.1445 53.077C13.0444 52.9969 12.9643 52.9018 12.9042 52.7917L11.5151 50.4038C11.49 50.4889 11.46 50.569 11.4249 50.6441C11.3899 50.7191 11.3524 50.7892 11.3123 50.8543L10.1709 52.7917C10.1008 52.8918 10.0182 52.9844 9.92313 53.0695C9.82801 53.1546 9.70536 53.1971 9.55518 53.1971H7.48268L10.0958 49.1723L7.58781 45.4102H9.82551C9.99071 45.4102 10.1109 45.4328 10.1859 45.4778C10.266 45.5179 10.3361 45.5879 10.3962 45.6881L11.7854 47.9934C11.8154 47.9032 11.853 47.8156 11.898 47.7305C11.9431 47.6404 11.9931 47.5503 12.0482 47.4602L13.0394 45.7256C13.1095 45.6155 13.1821 45.5354 13.2572 45.4853C13.3373 45.4353 13.4349 45.4102 13.55 45.4102H15.6826L13.1746 49.0672L15.7877 53.1971Z" fill="#FFA500"/>
<path d="M18.8356 51.0796C19.0108 51.2698 19.201 51.405 19.4063 51.4851C19.6115 51.5652 19.8268 51.6052 20.052 51.6052C20.2673 51.6052 20.465 51.5627 20.6453 51.4776C20.8255 51.3925 20.9807 51.2573 21.1108 51.0721C21.246 50.8818 21.3511 50.6365 21.4262 50.3362C21.5013 50.0358 21.5388 49.6704 21.5388 49.2399C21.5388 48.8294 21.5088 48.4839 21.4487 48.2036C21.3887 47.9233 21.3036 47.698 21.1934 47.5278C21.0883 47.3526 20.9606 47.2274 20.8105 47.1523C20.6603 47.0772 20.4926 47.0397 20.3074 47.0397C19.9669 47.0397 19.6866 47.1023 19.4663 47.2274C19.2461 47.3526 19.0358 47.5353 18.8356 47.7756V51.0796ZM18.6929 46.3714C18.9983 46.046 19.3437 45.7807 19.7292 45.5754C20.1196 45.3652 20.5827 45.26 21.1183 45.26C21.5238 45.26 21.8993 45.3502 22.2447 45.5304C22.5901 45.7106 22.888 45.9709 23.1383 46.3113C23.3886 46.6517 23.5838 47.0697 23.724 47.5653C23.8692 48.0559 23.9418 48.6141 23.9418 49.2399C23.9418 49.8256 23.8592 50.3662 23.694 50.8618C23.5338 51.3574 23.306 51.7879 23.0106 52.1534C22.7203 52.5188 22.3699 52.8042 21.9594 53.0094C21.5539 53.2147 21.1033 53.3173 20.6077 53.3173C20.2022 53.3173 19.8618 53.2597 19.5865 53.1446C19.3112 53.0294 19.0609 52.8743 18.8356 52.679V55.6676H16.5078V45.4102H17.9495C18.2399 45.4102 18.4301 45.5404 18.5202 45.8007L18.6929 46.3714Z" fill="#FFA500"/>
<path d="M27.474 41.9561V53.1971H25.1461V41.9561H27.474Z" fill="#FFA500"/>
<path d="M32.6367 45.2901C33.2274 45.2901 33.7655 45.3827 34.2511 45.5679C34.7367 45.7531 35.1522 46.0185 35.4976 46.3639C35.8481 46.7093 36.1184 47.1298 36.3086 47.6254C36.5038 48.116 36.6015 48.6692 36.6015 49.2849C36.6015 49.9057 36.5038 50.4663 36.3086 50.9669C36.1184 51.4625 35.8481 51.8856 35.4976 52.236C35.1522 52.5814 34.7367 52.8492 34.2511 53.0395C33.7655 53.2247 33.2274 53.3173 32.6367 53.3173C32.041 53.3173 31.4978 53.2247 31.0072 53.0395C30.5216 52.8492 30.1011 52.5814 29.7457 52.236C29.3953 51.8856 29.1224 51.4625 28.9272 50.9669C28.737 50.4663 28.6418 49.9057 28.6418 49.2849C28.6418 48.6692 28.737 48.116 28.9272 47.6254C29.1224 47.1298 29.3953 46.7093 29.7457 46.3639C30.1011 46.0185 30.5216 45.7531 31.0072 45.5679C31.4978 45.3827 32.041 45.2901 32.6367 45.2901ZM32.6367 51.5902C33.1723 51.5902 33.5653 51.4025 33.8156 51.027C34.0709 50.6466 34.1986 50.0709 34.1986 49.2999C34.1986 48.529 34.0709 47.9558 33.8156 47.5804C33.5653 47.2049 33.1723 47.0172 32.6367 47.0172C32.086 47.0172 31.683 47.2049 31.4277 47.5804C31.1724 47.9558 31.0448 48.529 31.0448 49.2999C31.0448 50.0709 31.1724 50.6466 31.4277 51.027C31.683 51.4025 32.086 51.5902 32.6367 51.5902Z" fill="#FFA500"/>
<path d="M39.9513 46.6117C40.1916 46.1912 40.467 45.8608 40.7773 45.6205C41.0927 45.3802 41.4532 45.26 41.8586 45.26C42.2091 45.26 42.4944 45.3426 42.7147 45.5078L42.5645 47.2199C42.5395 47.3301 42.4969 47.4051 42.4368 47.4452C42.3818 47.4852 42.3042 47.5053 42.2041 47.5053C42.164 47.5053 42.1115 47.5028 42.0464 47.4978C41.9813 47.4927 41.9137 47.4877 41.8436 47.4827C41.7735 47.4727 41.701 47.4652 41.6259 47.4602C41.5558 47.4502 41.4907 47.4452 41.4306 47.4452C41.0902 47.4452 40.8174 47.5353 40.6121 47.7155C40.4119 47.8957 40.2417 48.146 40.1015 48.4664V53.1971H37.7737V45.4102H39.1554C39.2705 45.4102 39.3656 45.4202 39.4407 45.4403C39.5208 45.4603 39.5859 45.4928 39.636 45.5379C39.691 45.5779 39.7311 45.633 39.7561 45.7031C39.7861 45.7732 39.8112 45.8583 39.8312 45.9584L39.9513 46.6117Z" fill="#FFA500"/>
<path d="M48.2195 48.3688C48.2195 48.1836 48.1945 48.0034 48.1444 47.8282C48.0994 47.6529 48.0218 47.4978 47.9117 47.3626C47.8065 47.2224 47.6664 47.1098 47.4912 47.0247C47.3159 46.9396 47.1032 46.897 46.8529 46.897C46.4124 46.897 46.0669 47.0247 45.8166 47.28C45.5663 47.5303 45.4011 47.8932 45.321 48.3688H48.2195ZM45.291 49.7204C45.3661 50.3712 45.5638 50.8443 45.8842 51.1397C46.2046 51.43 46.6176 51.5752 47.1232 51.5752C47.3935 51.5752 47.6263 51.5426 47.8216 51.4776C48.0168 51.4125 48.1895 51.3399 48.3397 51.2598C48.4949 51.1797 48.635 51.1071 48.7602 51.042C48.8903 50.977 49.0255 50.9444 49.1657 50.9444C49.3509 50.9444 49.4911 51.012 49.5862 51.1472L50.262 51.9807C50.0217 52.256 49.7614 52.4813 49.4811 52.6565C49.2057 52.8267 48.9204 52.9619 48.625 53.062C48.3347 53.1571 48.0418 53.2222 47.7465 53.2572C47.4561 53.2973 47.1783 53.3173 46.913 53.3173C46.3673 53.3173 45.8542 53.2297 45.3736 53.0545C44.898 52.8743 44.48 52.6089 44.1196 52.2585C43.7642 51.9081 43.4813 51.4726 43.2711 50.9519C43.0658 50.4313 42.9632 49.8256 42.9632 49.1347C42.9632 48.6141 43.0508 48.121 43.226 47.6554C43.4062 47.1899 43.6615 46.7819 43.9919 46.4315C44.3273 46.081 44.7303 45.8032 45.2009 45.598C45.6765 45.3927 46.2121 45.2901 46.8078 45.2901C47.3235 45.2901 47.794 45.3702 48.2195 45.5304C48.6501 45.6906 49.018 45.9234 49.3234 46.2287C49.6337 46.5341 49.874 46.9095 50.0442 47.3551C50.2195 47.7956 50.3071 48.2962 50.3071 48.8569C50.3071 49.0321 50.2996 49.1748 50.2845 49.2849C50.2695 49.395 50.242 49.4827 50.2019 49.5477C50.1619 49.6128 50.1068 49.6579 50.0367 49.6829C49.9717 49.7079 49.8866 49.7204 49.7814 49.7204H45.291Z" fill="#FFA500"/>
<path d="M53.6495 46.6117C53.8898 46.1912 54.1652 45.8608 54.4755 45.6205C54.7909 45.3802 55.1514 45.26 55.5568 45.26C55.9073 45.26 56.1926 45.3426 56.4129 45.5078L56.2627 47.2199C56.2377 47.3301 56.1951 47.4051 56.135 47.4452C56.08 47.4852 56.0024 47.5053 55.9023 47.5053C55.8622 47.5053 55.8096 47.5028 55.7446 47.4978C55.6795 47.4927 55.6119 47.4877 55.5418 47.4827C55.4717 47.4727 55.3992 47.4652 55.3241 47.4602C55.254 47.4502 55.1889 47.4452 55.1288 47.4452C54.7884 47.4452 54.5156 47.5353 54.3103 47.7155C54.1101 47.8957 53.9399 48.146 53.7997 48.4664V53.1971H51.4719V45.4102H52.8536C52.9687 45.4102 53.0638 45.4202 53.1389 45.4403C53.219 45.4603 53.2841 45.4928 53.3342 45.5379C53.3892 45.5779 53.4293 45.633 53.4543 45.7031C53.4843 45.7732 53.5094 45.8583 53.5294 45.9584L53.6495 46.6117Z" fill="#FFA500"/>
<path d="M62.1549 47.1148C62.0948 47.2099 62.0297 47.2775 61.9596 47.3175C61.8945 47.3576 61.8094 47.3776 61.7043 47.3776C61.5942 47.3776 61.484 47.3551 61.3739 47.31C61.2638 47.26 61.1436 47.2074 61.0135 47.1523C60.8883 47.0973 60.7456 47.0472 60.5855 47.0022C60.4253 46.9521 60.2425 46.9271 60.0373 46.9271C59.7419 46.9271 59.5142 46.9846 59.354 47.0998C59.1988 47.2099 59.1212 47.3651 59.1212 47.5653C59.1212 47.7105 59.1713 47.8307 59.2714 47.9258C59.3765 48.0209 59.5142 48.106 59.6844 48.1811C59.8546 48.2512 60.0473 48.3187 60.2626 48.3838C60.4778 48.4489 60.6981 48.5215 60.9234 48.6016C61.1486 48.6817 61.3689 48.7768 61.5842 48.8869C61.7994 48.9921 61.9922 49.1247 62.1624 49.2849C62.3326 49.4401 62.4677 49.6303 62.5679 49.8556C62.673 50.0809 62.7255 50.3512 62.7255 50.6666C62.7255 51.0521 62.6555 51.4075 62.5153 51.7329C62.3751 52.0583 62.1649 52.3386 61.8845 52.5739C61.6092 52.8092 61.2663 52.9919 60.8558 53.1221C60.4503 53.2522 59.9822 53.3173 59.4516 53.3173C59.1863 53.3173 58.9209 53.2923 58.6556 53.2422C58.3903 53.1921 58.1325 53.1246 57.8822 53.0395C57.6369 52.9543 57.4091 52.8542 57.1989 52.7391C56.9886 52.6189 56.8084 52.4913 56.6582 52.3561L57.1989 51.5001C57.2589 51.4 57.334 51.3224 57.4241 51.2673C57.5192 51.2072 57.6394 51.1772 57.7846 51.1772C57.9197 51.1772 58.0399 51.2072 58.145 51.2673C58.2551 51.3274 58.3728 51.3925 58.4979 51.4625C58.6231 51.5326 58.7683 51.5977 58.9335 51.6578C59.1037 51.7179 59.3164 51.7479 59.5717 51.7479C59.7519 51.7479 59.9046 51.7304 60.0298 51.6953C60.1549 51.6553 60.2551 51.6027 60.3301 51.5376C60.4052 51.4726 60.4603 51.4 60.4953 51.3199C60.5304 51.2398 60.5479 51.1572 60.5479 51.0721C60.5479 50.9169 60.4953 50.7892 60.3902 50.6891C60.2851 50.589 60.1474 50.5039 59.9772 50.4338C59.807 50.3587 59.6118 50.2911 59.3915 50.2311C59.1763 50.166 58.956 50.0934 58.7307 50.0133C58.5054 49.9332 58.2827 49.8381 58.0624 49.7279C57.8471 49.6128 57.6544 49.4701 57.4842 49.2999C57.314 49.1247 57.1763 48.912 57.0712 48.6617C56.9661 48.4114 56.9135 48.1085 56.9135 47.7531C56.9135 47.4227 56.9761 47.1098 57.1012 46.8144C57.2314 46.5141 57.4241 46.2512 57.6794 46.026C57.9348 45.8007 58.2551 45.623 58.6406 45.4928C59.0261 45.3577 59.4766 45.2901 59.9922 45.2901C60.2726 45.2901 60.5429 45.3151 60.8032 45.3652C61.0685 45.4152 61.3163 45.4853 61.5466 45.5754C61.7769 45.6655 61.9871 45.7732 62.1774 45.8983C62.3676 46.0185 62.5353 46.1511 62.6805 46.2963L62.1549 47.1148Z" fill="#FFA500"/>
</g>
<g id="Group 10">
<path id="Paper Plane (Traced)" fill-rule="evenodd" clip-rule="evenodd" d="M76.0705 12.1657C75.6639 12.9005 75.4245 13.9019 75.5389 14.3908C75.8541 15.7375 82.6454 22.1806 83.531 21.9734C85.1561 21.5931 84.4528 19.8127 81.5687 17.0058C79.9221 15.4036 78.6888 13.91 78.8273 13.6868C78.9657 13.463 88.5023 12.2672 100.019 11.0289C111.535 9.79073 121.161 8.72719 121.409 8.66545C121.657 8.60432 121.922 8.81887 121.998 9.14318C122.163 9.84907 101.39 46.2358 100.576 46.6653C99.6444 47.1581 95.9026 36.3517 95.9793 33.3893C96.0844 29.3387 98.6467 25.9962 104.55 22.2113C108.74 19.525 109.612 18.7099 109.376 17.7007C109.014 16.1515 107.564 16.7462 101.284 21.0243C92.1579 27.2399 91.1178 31.7751 95.9446 44.2967C97.9562 49.5159 98.6321 50.2307 101.025 49.6707C102.935 49.2238 103.025 49.0819 117.189 24.2704C125.577 9.57586 126.275 7.61271 123.581 6.26882C122.752 5.85504 81.5746 9.75992 77.7736 10.6131C77.2438 10.732 76.4772 11.4309 76.0705 12.1657ZM79.5846 31.0004C76.8135 32.8009 75.6549 33.9063 75.8164 34.5965C76.216 36.3042 76.7844 36.1954 80.9575 33.6122C85.5716 30.7566 87.051 29.2965 86.1982 28.4399C85.3472 27.5855 84.096 28.0697 79.5846 31.0004ZM80.5433 38.4638C76.0767 41.4501 73.6904 43.4092 73.717 44.0687C73.792 45.9599 75.45 45.3259 82.3517 40.7657C90.3069 35.5102 90.6504 35.2092 89.9169 34.1289C89.1123 32.9431 88.1026 33.4102 80.5433 38.4638Z" fill="#FFA500"/>
<path id="Paper Plane (Traced)_2" fill-rule="evenodd" clip-rule="evenodd" d="M76.0701 12.1659C75.6634 12.9007 75.4241 13.9021 75.5385 14.391C75.8536 15.7377 82.645 22.1808 83.5305 21.9736C85.1557 21.5933 84.4524 19.8129 81.5683 17.006C79.9217 15.4038 78.6884 13.9102 78.8269 13.687C78.9653 13.4632 88.5019 12.2674 100.019 11.0291C111.535 9.79093 121.161 8.72739 121.408 8.66565C121.656 8.60452 121.921 8.81907 121.997 9.14338C122.162 9.84928 101.39 46.236 100.576 46.6655C99.644 47.1583 95.9022 36.3519 95.9789 33.3895C96.084 29.3389 98.6462 25.9964 104.55 22.2115C108.74 19.5252 109.612 18.7101 109.376 17.701C109.013 16.1517 107.564 16.7464 101.284 21.0245C92.1575 27.2401 91.1174 31.7753 95.9441 44.2969C97.9558 49.5161 98.6317 50.2309 101.025 49.6709C102.935 49.224 103.025 49.0821 117.189 24.2706C125.577 9.57606 126.274 7.61291 123.58 6.26903C122.751 5.85524 81.5741 9.76012 77.7732 10.6133C77.2434 10.7322 76.4767 11.4311 76.0701 12.1659Z" fill="#0336FF"/>
</g>
</g>
</svg>
